<svg width="450" height="450" viewBox="0 0 450 450" fill="none" xmlns="http://www.w3.org/2000/svg">
<path d="M304.274 432.369H99.6612C90.8516 432.369 84.6013 425.238 85.7086 416.459L136.081 18.7132C137.188 9.93446 145.235 2.80331 154.069 2.80331L348.42 0.541016C370.739 0.541016 373.766 9.93446 372.634 18.7132L322.237 416.484C321.155 425.263 313.083 432.369 304.274 432.369Z" fill="#000091"/>
<path d="M304.274 432.91H99.6612C95.2564 432.91 91.3192 431.189 88.5877 428.09C85.8317 424.967 84.6259 420.812 85.1919 416.386L135.539 18.6394C136.671 9.61476 144.988 2.2623 154.069 2.2623L348.42 0C359.075 0 366.408 2.18853 370.198 6.49181C372.88 9.5164 373.84 13.5492 373.175 18.7869L322.779 416.558C321.647 425.582 313.354 432.91 304.274 432.91ZM348.42 1.08197L154.069 3.34426C145.53 3.34426 137.705 10.2787 136.622 18.7869L86.2254 416.533C85.7086 420.64 86.816 424.5 89.3752 427.377C91.9098 430.254 95.5517 431.828 99.6366 431.828H304.274C312.813 431.828 320.638 424.894 321.721 416.386L372.093 18.6394C372.708 13.7213 371.822 9.98361 369.361 7.18033C365.793 3.14754 358.755 1.08197 348.42 1.08197Z" fill="#000091"/>
<path d="M291.97 432.369H87.3328C78.5232 432.369 72.2729 425.238 73.3802 416.41L123.777 17.4102C124.884 8.60691 132.931 1.45117 141.765 1.45117H346.402C355.212 1.45117 361.462 8.58232 360.355 17.4102L309.958 416.435C308.826 425.238 300.78 432.369 291.97 432.369Z" fill="white"/>
<path d="M291.97 432.91H87.3327C82.928 432.91 79.0153 431.214 76.2593 428.091C73.5032 424.943 72.2729 420.788 72.8388 416.337L123.235 17.3364C124.367 8.28721 132.685 0.910156 141.765 0.910156H346.402C350.807 0.910156 354.72 2.60688 357.476 5.72983C360.232 8.87737 361.462 13.0331 360.896 17.4839L310.5 416.509C309.343 425.558 301.026 432.91 291.97 432.91ZM141.74 1.99212C133.201 1.99212 125.376 8.92656 124.293 17.4839L73.9216 416.484C73.4048 420.615 74.5122 424.476 77.0713 427.378C79.6059 430.255 83.2479 431.828 87.3327 431.828H291.97C300.509 431.828 308.334 424.894 309.417 416.337L359.789 17.3364C360.305 13.2052 359.198 9.34459 356.639 6.44295C354.104 3.5659 350.462 1.99212 346.378 1.99212H141.74Z" fill="#000091"/>
<path d="M85.0442 416.976L133.152 35.9756C133.398 33.9347 135.268 32.2871 137.311 32.2871H343.031C345.073 32.2871 346.501 33.9347 346.255 35.9756L298.147 416.976C297.901 419.017 296.03 420.664 293.988 420.664H88.2678C86.2254 420.664 84.7982 419.017 85.0442 416.976Z" fill="white"/>
<path d="M293.988 421.205H88.2678C87.1359 421.205 86.1024 420.763 85.3887 419.951C84.6751 419.14 84.3552 418.058 84.5029 416.902L132.611 35.9018C132.906 33.6149 134.998 31.7461 137.311 31.7461H343.031C344.163 31.7461 345.196 32.1887 345.91 33.0002C346.624 33.8117 346.944 34.8936 346.796 36.0494L298.688 417.05C298.393 419.336 296.276 421.205 293.988 421.205ZM85.5856 417.05C85.4872 417.886 85.7086 418.648 86.2254 419.238C86.7175 419.804 87.4558 420.123 88.2678 420.123H293.988C295.76 420.123 297.384 418.673 297.605 416.902L345.713 35.9018C345.812 35.0658 345.59 34.3035 345.073 33.7133C344.581 33.1477 343.843 32.8281 343.031 32.8281H137.311C135.539 32.8281 133.915 34.2789 133.694 36.0494L85.5856 417.05Z" fill="#000091"/>
<path d="M241.5 21.7379C238.202 21.7379 235.865 19.0576 236.283 15.7625C236.701 12.4674 239.703 9.78711 243.025 9.78711C246.323 9.78711 248.661 12.4674 248.242 15.7625C247.824 19.0576 244.797 21.7379 241.5 21.7379Z" fill="#000091"/>
<mask id="mask0_19336_31823" style="mask-type:luminance" maskUnits="userSpaceOnUse" x="85" y="32" width="262" height="389">
<path d="M85.0442 416.976L133.152 35.9756C133.398 33.9347 135.268 32.2871 137.311 32.2871H343.031C345.073 32.2871 346.501 33.9347 346.255 35.9756L298.147 416.976C297.901 419.017 296.03 420.664 293.988 420.664H88.2678C86.2254 420.664 84.7982 419.017 85.0442 416.976Z" fill="white"/>
</mask>
<g mask="url(#mask0_19336_31823)">
<path d="M303.894 401.149H85.23L85.9682 393.231H304.632L303.894 401.149Z" fill="#E1000F"/>
<path d="M178.065 234.875H302.171C306.677 234.875 310.167 238.821 309.615 243.293L293.2 376.355C292.737 380.114 289.544 382.938 285.757 382.938H164.454C160.01 382.938 156.541 379.096 156.993 374.675L170.605 241.611C170.996 237.785 174.219 234.875 178.065 234.875Z" fill="white" stroke="#000091"/>
<path d="M176.459 265.234C176.563 264.214 177.423 263.438 178.448 263.438H295.831C297.033 263.438 297.964 264.49 297.816 265.683L289.843 330.121C289.719 331.123 288.867 331.875 287.858 331.875H171.871C170.686 331.875 169.761 330.851 169.881 329.672L176.459 265.234Z" fill="#ECECFE"/>
<path fill-rule="evenodd" clip-rule="evenodd" d="M232.469 305.625C227.291 305.625 223.094 301.428 223.094 296.25C223.094 291.072 227.291 286.875 232.469 286.875C237.647 286.875 241.844 291.072 241.844 296.25C241.844 301.428 237.647 305.625 232.469 305.625ZM231.177 292.889C231.062 292.812 230.914 292.805 230.792 292.87C230.67 292.935 230.594 293.062 230.594 293.2V299.3C230.594 299.438 230.67 299.565 230.792 299.63C230.914 299.695 231.062 299.688 231.177 299.611L235.751 296.562C235.855 296.493 235.918 296.375 235.918 296.25C235.918 296.125 235.855 296.007 235.751 295.938L231.177 292.889Z" fill="white"/>
<path d="M179.4 244.178C179.661 243.904 180.023 243.75 180.401 243.75H245.83C247.099 243.75 247.718 245.299 246.8 246.174C246.538 246.423 246.19 246.562 245.829 246.562L180.4 246.523C179.18 246.522 178.556 245.059 179.4 244.178Z" fill="#ECECFE"/>
<path d="M179.676 250.503C179.889 250.378 180.131 250.312 180.378 250.312H298.114C299.577 250.312 300.067 252.268 298.778 252.958C298.574 253.068 298.346 253.125 298.114 253.125L180.378 253.085C178.965 253.084 178.458 251.218 179.676 250.503Z" fill="#ECECFE"/>
<path d="M178.739 257.066C178.952 256.941 179.194 256.875 179.441 256.875H297.177C298.639 256.875 299.13 258.83 297.841 259.521C297.636 259.63 297.408 259.687 297.176 259.687L179.44 259.647C178.027 259.647 177.521 257.781 178.739 257.066Z" fill="#ECECFE"/>
<path d="M231.608 339.275C231.722 338.264 232.577 337.5 233.595 337.5H287.413C288.608 337.5 289.537 338.541 289.4 339.728L285.765 371.353C285.649 372.363 284.795 373.125 283.778 373.125H230.02C228.827 373.125 227.899 372.086 228.033 370.9L231.608 339.275Z" fill="#ECECFE"/>
<path d="M169.57 338.023C169.833 337.693 170.232 337.5 170.655 337.5H224.689C225.896 337.5 226.542 338.921 225.748 339.83C225.481 340.137 225.094 340.312 224.688 340.312L170.654 340.273C169.493 340.272 168.847 338.931 169.57 338.023Z" fill="#ECECFE"/>
<path d="M168.667 344.577C168.93 344.252 169.327 344.062 169.745 344.062H224.657C225.869 344.062 226.513 345.494 225.709 346.401C225.442 346.702 225.059 346.875 224.656 346.875L169.744 346.835C168.579 346.834 167.935 345.484 168.667 344.577Z" fill="#ECECFE"/>
<path d="M168.633 351.148C168.896 350.818 169.295 350.625 169.717 350.625H223.751C224.958 350.625 225.604 352.046 224.811 352.955C224.544 353.262 224.157 353.437 223.75 353.437L169.716 353.398C168.556 353.397 167.91 352.056 168.633 351.148Z" fill="#ECECFE"/>
<path d="M167.695 357.711C167.958 357.38 168.357 357.188 168.78 357.188H222.814C224.021 357.188 224.667 358.608 223.873 359.518C223.606 359.824 223.219 360 222.813 360L168.779 359.96C167.618 359.959 166.972 358.618 167.695 357.711Z" fill="#ECECFE"/>
<path d="M166.792 364.265C167.055 363.939 167.452 363.75 167.87 363.75H222.782C223.994 363.75 224.638 365.181 223.834 366.088C223.567 366.39 223.184 366.562 222.781 366.562L167.869 366.523C166.704 366.522 166.06 365.171 166.792 364.265Z" fill="#ECECFE"/>
<path d="M166.757 370.836C167.021 370.505 167.42 370.312 167.842 370.312H221.876C223.083 370.312 223.729 371.733 222.936 372.643C222.669 372.949 222.282 373.125 221.875 373.125L167.841 373.085C166.681 373.084 166.035 371.743 166.757 370.836Z" fill="#ECECFE"/>
<path d="M125.15 234.875H155.181C159.621 234.875 163.09 238.712 162.643 243.13L149.178 376.192C148.79 380.023 145.566 382.938 141.716 382.938H108.413C103.9 382.938 100.409 378.98 100.972 374.502L117.709 241.439C118.181 237.689 121.37 234.875 125.15 234.875Z" fill="white" stroke="#000091"/>
<path d="M122.633 243.64C122.752 242.633 123.605 241.875 124.619 241.875H154.343C155.519 241.875 156.441 242.884 156.335 244.054L155.936 248.492C155.844 249.523 154.979 250.313 153.944 250.313H124.094C122.897 250.313 121.967 249.267 122.108 248.078L122.633 243.64Z" fill="#ECECFE"/>
<path d="M121.695 255.828C121.814 254.821 122.668 254.062 123.682 254.062H153.406C154.581 254.062 155.503 255.071 155.398 256.242L154.999 260.679C154.906 261.71 154.042 262.5 153.007 262.5H123.157C121.959 262.5 121.03 261.454 121.171 260.265L121.695 255.828Z" fill="#ECECFE"/>
<path d="M117.945 288.64C118.064 287.633 118.918 286.875 119.932 286.875H149.656C150.831 286.875 151.753 287.884 151.648 289.054L151.249 293.492C151.156 294.523 150.292 295.313 149.257 295.313H119.407C118.209 295.313 117.28 294.267 117.421 293.078L117.945 288.64Z" fill="#ECECFE"/>
<path d="M111.383 354.265C111.502 353.258 112.355 352.5 113.369 352.5H143.093C144.269 352.5 145.191 353.509 145.085 354.679L144.686 359.117C144.593 360.148 143.729 360.938 142.694 360.938H112.844C111.647 360.938 110.717 359.892 110.858 358.703L111.383 354.265Z" fill="#ECECFE"/>
<path d="M110.445 367.39C110.564 366.383 111.418 365.625 112.432 365.625H142.156C143.331 365.625 144.253 366.634 144.148 367.804L143.749 372.242C143.656 373.273 142.792 374.063 141.757 374.063H111.907C110.709 374.063 109.78 373.017 109.921 371.828L110.445 367.39Z" fill="#ECECFE"/>
<path d="M116.924 300.713C117.093 299.758 117.923 299.062 118.893 299.062H148.618C149.829 299.062 150.762 300.13 150.6 301.33L150.381 302.955C150.247 303.947 149.4 304.688 148.399 304.688H118.605C117.36 304.688 116.418 303.563 116.636 302.338L116.924 300.713Z" fill="#ECECFE"/>
<path d="M115.986 310.088C116.156 309.133 116.986 308.438 117.956 308.438H147.681C148.892 308.438 149.825 309.505 149.663 310.705L149.444 312.33C149.31 313.322 148.463 314.063 147.462 314.063H117.667C116.423 314.063 115.481 312.938 115.698 311.713L115.986 310.088Z" fill="#ECECFE"/>
<path d="M115.049 319.463C115.218 318.508 116.048 317.812 117.018 317.812H146.743C147.954 317.812 148.887 318.88 148.725 320.08L148.506 321.705C148.372 322.697 147.525 323.438 146.524 323.438H116.73C115.485 323.438 114.543 322.313 114.761 321.088L115.049 319.463Z" fill="#ECECFE"/>
<path d="M120.763 268.022C120.879 267.012 121.734 266.25 122.75 266.25H152.422C153.614 266.25 154.541 267.286 154.41 268.471L152.979 281.346C152.866 282.359 152.01 283.125 150.991 283.125H121.274C120.079 283.125 119.151 282.084 119.287 280.897L120.763 268.022Z" fill="#ECECFE"/>
<path d="M114.201 332.71C114.317 331.7 115.171 330.938 116.188 330.938H145.859C147.051 330.938 147.979 331.974 147.847 333.158L146.416 346.033C146.304 347.046 145.448 347.813 144.429 347.813H114.711C113.516 347.813 112.588 346.772 112.724 345.585L114.201 332.71Z" fill="#ECECFE"/>
<path d="M327.331 210.836H108.667L109.406 202.918H328.069L327.331 210.836Z" fill="#000091"/>
<path d="M201.503 44.5625H325.608C330.115 44.5625 333.604 48.5081 333.053 52.9805L316.638 186.043C316.174 189.802 312.981 192.625 309.194 192.625H187.892C183.448 192.625 179.979 188.783 180.431 184.362L194.042 51.2988C194.434 47.4725 197.657 44.5626 201.503 44.5625Z" fill="white" stroke="#000091"/>
<path d="M202.686 57.0909C202.799 56.0783 203.655 55.3125 204.673 55.3125H322.085C323.285 55.3125 324.215 56.3632 324.07 57.5551L319.404 95.7334C319.28 96.7406 318.423 97.4961 317.408 97.4908L200.474 96.8836C199.286 96.8774 198.365 95.8428 198.496 94.662L202.686 57.0909Z" fill="#ECECFE"/>
<path d="M198.426 104.253C198.639 104.128 198.881 104.062 199.128 104.062H316.864C318.327 104.062 318.817 106.018 317.528 106.708C317.324 106.818 317.096 106.875 316.864 106.875L199.128 106.835C197.715 106.834 197.208 104.968 198.426 104.253Z" fill="#ECECFE"/>
<path d="M197.489 110.816C197.702 110.691 197.944 110.625 198.191 110.625H315.927C317.389 110.625 317.88 112.58 316.591 113.271C316.386 113.38 316.158 113.437 315.926 113.437L198.19 113.397C196.777 113.397 196.271 111.531 197.489 110.816Z" fill="#ECECFE"/>
<path d="M196.551 117.378C196.764 117.253 197.006 117.188 197.253 117.188H314.989C316.452 117.188 316.942 119.143 315.653 119.833C315.449 119.943 315.221 120 314.989 120L197.253 119.96C195.84 119.959 195.333 118.093 196.551 117.378Z" fill="#ECECFE"/>
<path d="M195.614 123.941C195.827 123.816 196.069 123.75 196.316 123.75H314.052C315.514 123.75 316.005 125.705 314.716 126.396C314.511 126.505 314.283 126.562 314.051 126.562L196.315 126.522C194.902 126.522 194.396 124.656 195.614 123.941Z" fill="#ECECFE"/>
<path d="M194.676 130.503C194.889 130.378 195.131 130.312 195.378 130.312H313.114C314.577 130.312 315.067 132.268 313.778 132.958C313.574 133.068 313.346 133.125 313.114 133.125L195.378 133.085C193.965 133.084 193.458 131.218 194.676 130.503Z" fill="#ECECFE"/>
<path d="M193.739 137.066C193.952 136.941 194.194 136.875 194.441 136.875H312.177C313.639 136.875 314.13 138.83 312.841 139.521C312.636 139.63 312.408 139.687 312.176 139.687L194.44 139.647C193.027 139.647 192.521 137.781 193.739 137.066Z" fill="#ECECFE"/>
<path d="M255.045 148.963C255.159 147.952 256.015 147.188 257.032 147.188H310.851C312.046 147.188 312.974 148.229 312.838 149.416L309.203 181.041C309.087 182.05 308.232 182.813 307.216 182.813H253.458C252.264 182.813 251.336 181.774 251.47 180.588L255.045 148.963Z" fill="#ECECFE"/>
<path d="M193.008 147.711C193.271 147.38 193.67 147.188 194.092 147.188H248.126C249.333 147.188 249.979 148.608 249.186 149.518C248.919 149.824 248.532 150 248.125 150L194.091 149.96C192.931 149.959 192.285 148.618 193.008 147.711Z" fill="#ECECFE"/>
<path d="M192.105 154.265C192.368 153.939 192.764 153.75 193.183 153.75H248.095C249.307 153.75 249.951 155.181 249.147 156.088C248.88 156.39 248.496 156.562 248.094 156.562L193.182 156.523C192.017 156.522 191.372 155.171 192.105 154.265Z" fill="#ECECFE"/>
<path d="M192.07 160.836C192.333 160.505 192.732 160.312 193.155 160.312H247.189C248.396 160.312 249.042 161.733 248.248 162.643C247.981 162.949 247.594 163.125 247.188 163.125L193.154 163.085C191.993 163.084 191.347 161.743 192.07 160.836Z" fill="#ECECFE"/>
<path d="M191.133 167.398C191.396 167.068 191.795 166.875 192.217 166.875H246.251C247.458 166.875 248.104 168.296 247.311 169.205C247.044 169.512 246.657 169.687 246.25 169.687L192.216 169.648C191.056 169.647 190.41 168.306 191.133 167.398Z" fill="#ECECFE"/>
<path d="M190.23 173.952C190.493 173.627 190.889 173.438 191.308 173.438H246.22C247.432 173.438 248.076 174.869 247.272 175.776C247.005 176.077 246.621 176.25 246.219 176.25L191.307 176.21C190.142 176.209 189.497 174.859 190.23 173.952Z" fill="#ECECFE"/>
<path d="M190.195 180.523C190.458 180.193 190.857 180 191.28 180H245.314C246.521 180 247.167 181.421 246.373 182.33C246.106 182.637 245.719 182.812 245.313 182.812L191.279 182.773C190.118 182.772 189.472 181.431 190.195 180.523Z" fill="#ECECFE"/>
<path d="M148.588 44.5625H178.618C183.059 44.5625 186.527 48.3993 186.08 52.8174L172.615 185.88C172.228 189.71 169.003 192.625 165.153 192.625H131.851C127.337 192.625 123.846 188.668 124.409 184.189L141.147 51.127C141.618 47.3763 144.808 44.5626 148.588 44.5625Z" fill="white" stroke="#000091"/>
<path d="M146.07 53.3276C146.189 52.3209 147.043 51.5625 148.057 51.5625H177.781C178.956 51.5625 179.878 52.5711 179.773 53.7416L179.374 58.1792C179.281 59.2101 178.417 60 177.382 60H147.532C146.334 60 145.405 58.9545 145.546 57.7651L146.07 53.3276Z" fill="#ECECFE"/>
<path d="M145.133 65.5151C145.252 64.5084 146.105 63.75 147.119 63.75H176.843C178.019 63.75 178.941 64.7586 178.835 65.9291L178.436 70.3667C178.344 71.3976 177.479 72.1875 176.444 72.1875H146.594C145.397 72.1875 144.467 71.142 144.608 69.9526L145.133 65.5151Z" fill="#ECECFE"/>
<path d="M141.383 98.3276C141.502 97.3209 142.355 96.5625 143.369 96.5625H173.093C174.269 96.5625 175.191 97.5711 175.085 98.7416L174.686 103.179C174.594 104.21 173.729 105 172.694 105H142.844C141.647 105 140.717 103.954 140.858 102.765L141.383 98.3276Z" fill="#ECECFE"/>
<path d="M134.82 163.953C134.939 162.946 135.793 162.188 136.807 162.188H166.531C167.706 162.188 168.628 163.196 168.523 164.367L168.124 168.804C168.031 169.835 167.167 170.625 166.132 170.625H136.282C135.084 170.625 134.155 169.579 134.296 168.39L134.82 163.953Z" fill="#ECECFE"/>
<path d="M133.883 177.078C134.002 176.071 134.855 175.312 135.869 175.312H165.593C166.769 175.312 167.691 176.321 167.585 177.492L167.186 181.929C167.094 182.96 166.229 183.75 165.194 183.75H135.344C134.147 183.75 133.217 182.704 133.358 181.515L133.883 177.078Z" fill="#ECECFE"/>
<path d="M140.361 110.401C140.531 109.446 141.361 108.75 142.331 108.75H172.056C173.267 108.75 174.2 109.817 174.038 111.017L173.819 112.642C173.685 113.635 172.838 114.375 171.837 114.375H142.042C140.798 114.375 139.856 113.251 140.073 112.026L140.361 110.401Z" fill="#ECECFE"/>
<path d="M139.424 119.776C139.593 118.821 140.423 118.125 141.393 118.125H171.118C172.329 118.125 173.262 119.192 173.1 120.392L172.881 122.017C172.747 123.01 171.9 123.75 170.899 123.75H141.105C139.86 123.75 138.918 122.626 139.136 121.401L139.424 119.776Z" fill="#ECECFE"/>
<path d="M138.486 129.151C138.656 128.196 139.486 127.5 140.456 127.5H170.181C171.392 127.5 172.325 128.567 172.163 129.767L171.944 131.392C171.81 132.385 170.963 133.125 169.962 133.125H140.167C138.923 133.125 137.981 132.001 138.198 130.776L138.486 129.151Z" fill="#ECECFE"/>
<path d="M144.201 77.7096C144.317 76.6998 145.172 75.9375 146.188 75.9375H175.859C177.051 75.9375 177.979 76.9736 177.847 78.1584L176.416 91.0334C176.304 92.0462 175.448 92.8125 174.429 92.8125H144.711C143.516 92.8125 142.588 91.7717 142.724 90.5846L144.201 77.7096Z" fill="#ECECFE"/>
<path d="M137.638 142.397C137.754 141.387 138.609 140.625 139.625 140.625H169.297C170.489 140.625 171.416 141.661 171.285 142.846L169.854 155.721C169.741 156.734 168.885 157.5 167.866 157.5H138.149C136.954 157.5 136.026 156.459 136.162 155.272L137.638 142.397Z" fill="#ECECFE"/>
</g>
<path d="M421.382 186.664C421.209 186.664 421.062 186.59 420.939 186.442C420.767 186.196 420.791 185.877 421.037 185.68L422.292 184.721C423.473 183.811 424.876 182.016 424.876 181.992C425.048 181.746 425.393 181.721 425.639 181.893C425.885 182.065 425.91 182.41 425.737 182.656C425.688 182.729 424.236 184.598 422.957 185.582L421.702 186.541C421.603 186.639 421.48 186.664 421.382 186.664Z" fill="#000091"/>
<path d="M419.241 184.278C419.044 184.278 418.847 184.179 418.749 183.983C418.601 183.712 418.724 183.393 418.97 183.245L420.373 182.507C421.677 181.819 423.375 180.27 423.4 180.27C423.621 180.073 423.966 180.073 424.162 180.294C424.359 180.516 424.359 180.86 424.138 181.056C424.064 181.13 422.317 182.704 420.89 183.466L419.487 184.204C419.413 184.253 419.315 184.278 419.241 184.278Z" fill="#000091"/>
<path d="M371.104 157.639C376.664 156.927 382.615 157.901 387.692 159.16C390.238 159.791 392.584 160.499 394.57 161.113C396.327 161.656 397.763 162.113 398.832 162.393L399.268 162.501L399.281 162.504C400.099 162.709 401.038 162.824 402.118 162.969C403.168 163.11 404.324 163.277 405.455 163.592C408.499 164.43 412.202 166.354 415.356 168.354C416.942 169.36 418.413 170.398 419.616 171.353C420.801 172.294 421.783 173.197 422.347 173.931L422.437 174.059C422.636 174.366 422.756 174.727 422.836 175.064C422.933 175.468 422.996 175.938 423.037 176.451C423.117 177.476 423.112 178.767 423.051 180.225C422.93 183.146 422.579 186.854 422.179 190.689C421.778 194.539 421.328 198.514 420.999 202.021C420.67 205.543 420.472 208.509 420.56 210.345C420.85 216.355 423.621 227.833 424.99 233.925L425.023 234.098C425.301 235.877 423.58 237.311 421.877 236.744V236.743C417.569 235.328 412.171 236.003 406.941 237.532C401.741 239.051 396.867 241.367 393.699 243.047C391.071 244.442 387.98 244.577 385.248 243.458L385.244 243.457C379.469 241.063 376.195 240.627 373.833 240.889C372.65 241.021 371.65 241.332 370.622 241.718C369.622 242.094 368.493 242.585 367.246 242.971L367.245 242.97C363.271 244.209 357.351 244.854 354.405 245.125L354.406 245.125C352.808 245.293 351.501 243.871 351.791 242.306L352.24 239.88C352.782 237.012 353.605 232.884 354.678 228.078L354.842 227.293C355.647 223.215 356.22 216.82 356.61 210.781C357.022 204.392 357.225 198.485 357.288 196.328L357.284 196.258C357.265 196.105 357.185 195.985 357.059 195.906L345.018 188.981L345.015 188.98C344.246 188.535 343.726 187.669 343.807 186.711H343.805C344.717 174.643 350.553 167.466 356.677 163.271C362.76 159.105 369.095 157.897 371.104 157.639Z" fill="white" stroke="#000091" stroke-width="2"/>
<path d="M354.129 244.671C353.588 244.671 353.071 244.45 352.702 244.032C352.283 243.589 352.111 242.975 352.21 242.36C352.677 239.803 353.661 234.589 355.089 228.147C356.91 219.958 357.599 200.163 357.722 196.278C357.722 195.958 357.574 195.663 357.279 195.491L345.221 188.557C344.581 188.188 344.187 187.475 344.237 186.712C346.107 161.999 368.574 158.385 371.133 158.065C379.819 156.934 389.589 160.032 395.445 161.876C396.897 162.344 398.152 162.737 399.063 162.958C399.85 163.155 400.711 163.278 401.646 163.401C402.828 163.548 404.033 163.721 405.239 164.065C411.219 165.712 419.856 171.565 421.898 174.221C423.129 175.819 422.464 182.95 421.234 194.507C420.545 201.048 419.881 207.221 420.028 210.368C420.274 215.63 422.44 225.098 423.867 231.368C424.089 232.327 424.285 233.237 424.458 234.024C424.605 234.712 424.384 235.426 423.867 235.893C423.35 236.36 422.612 236.532 421.948 236.286C413.064 233.36 400.268 238.991 393.427 242.606C390.917 243.934 387.989 244.081 385.381 242.999C375.907 239.065 372.929 240.245 369.46 241.622C368.721 241.917 367.934 242.212 367.073 242.483C363.209 243.663 357.426 244.327 354.301 244.622C354.252 244.671 354.178 244.671 354.129 244.671ZM371.231 158.63L371.305 159.171C368.844 159.491 347.14 162.983 345.344 186.835C345.319 187.155 345.492 187.475 345.787 187.647L357.845 194.581C358.46 194.95 358.854 195.614 358.829 196.327C358.706 200.237 358.017 220.106 356.171 228.393C354.744 234.811 353.76 240.024 353.292 242.557C353.243 242.827 353.317 243.098 353.514 243.294C353.686 243.491 353.957 243.589 354.227 243.565C357.303 243.294 362.988 242.63 366.777 241.475C367.589 241.229 368.352 240.934 369.09 240.639C372.634 239.237 375.956 237.934 385.824 242.016C388.137 242.975 390.745 242.852 392.96 241.671C399.948 237.958 413.089 232.204 422.341 235.278C422.637 235.376 422.957 235.303 423.203 235.106C423.449 234.885 423.547 234.589 423.473 234.27C423.301 233.483 423.08 232.573 422.883 231.614C421.456 225.319 419.29 215.778 419.019 210.417C418.872 207.171 419.536 200.95 420.225 194.385C421.086 186.294 422.169 176.237 421.111 174.86C419.142 172.303 410.628 166.622 405.018 165.073C403.886 164.753 402.705 164.606 401.573 164.458C400.613 164.335 399.702 164.212 398.866 163.991C397.931 163.77 396.651 163.352 395.199 162.909C389.441 161.089 379.795 158.065 371.354 159.147L371.231 158.63Z" fill="white"/>
<path d="M350.635 215.778C354.227 221.114 358.361 222.836 367.393 220.5C376.424 218.164 395.593 204.467 405.042 191.409C405.042 191.409 405.707 190.205 407.552 190.426C409.398 190.647 417.026 193.573 422.686 188.582C428.346 183.59 426.992 180 426.722 179.311C426.254 178.155 417.789 179.631 415.5 178.623C413.212 177.614 413.237 176.016 414.959 173.68C417.002 170.901 412.449 170.262 408.979 175.204C406.863 178.204 403.32 182.164 400.121 183.786C396.799 185.459 363.062 197.606 361.314 197.065C359.567 196.524 348.617 189.909 348.617 189.909C348.617 189.909 346.747 209.95 350.635 215.778Z" fill="white"/>
<path d="M360.65 222.048C356.048 222.048 352.923 220.155 350.192 216.073C346.23 210.147 348.002 190.671 348.075 189.86C348.1 189.663 348.199 189.515 348.371 189.417C348.543 189.343 348.74 189.343 348.888 189.442C351.914 191.261 360.084 196.13 361.462 196.548C363.357 196.77 395.913 185.311 399.85 183.319C403.024 181.72 406.494 177.786 408.512 174.909C410.53 172.032 412.966 170.876 414.492 171.024C415.156 171.097 415.648 171.393 415.87 171.884C416.066 172.302 416.116 173.015 415.377 174.024C414.467 175.253 414.122 176.188 414.295 176.852C414.418 177.343 414.885 177.786 415.697 178.13C416.706 178.573 419.339 178.475 421.628 178.376C425.122 178.229 426.795 178.204 427.189 179.114C427.755 180.466 428.493 184.179 423.03 188.999C418.035 193.401 411.711 191.925 408.66 191.237C408.143 191.114 407.724 191.015 407.478 190.991C406.051 190.819 405.534 191.655 405.51 191.704C405.51 191.729 405.485 191.753 405.485 191.753C396.11 204.688 376.768 218.655 367.516 221.04C364.907 221.679 362.643 222.048 360.65 222.048ZM349.084 190.819C348.789 194.704 347.805 210.54 351.102 215.483C354.227 220.155 357.894 222.393 367.269 219.983C376.35 217.647 395.347 203.876 404.624 191.114C404.772 190.868 405.633 189.663 407.651 189.884C407.971 189.934 408.413 190.032 408.955 190.155C411.809 190.819 417.789 192.22 422.341 188.163C427.189 183.86 426.722 180.761 426.254 179.556C425.786 179.286 423.449 179.36 421.726 179.434C419.167 179.532 416.534 179.63 415.304 179.089C414.172 178.573 413.507 177.934 413.286 177.097C413.015 176.089 413.409 174.884 414.541 173.36C414.935 172.819 414.984 172.475 414.91 172.302C414.836 172.13 414.541 172.081 414.418 172.081C413.433 171.983 411.293 172.819 409.422 175.524C407.331 178.499 403.689 182.581 400.342 184.278C398.349 185.286 363.381 198.27 361.142 197.581C359.616 197.089 351.594 192.319 349.084 190.819Z" fill="#000091"/>
<path d="M420.89 189.859L420.767 191.064L420.028 197.999C419.265 204.097 419.856 209.064 419.856 209.064C419.856 210.982 421.013 213.245 422.44 214.499C424.089 215.95 424.95 216.269 426.303 216.761C431.372 218.605 433.587 218.04 435.433 212.802C437.278 207.564 436.614 204.294 432.283 188.04C432.283 188.04 431.102 184.745 434.448 182.556C437.426 180.589 436.442 175.892 433.686 172.327C429.33 166.597 420.102 189.097 420.89 189.859Z" fill="white"/>
<path d="M430.511 218.237C429.355 218.237 427.952 217.917 426.131 217.253L426.057 217.228C424.728 216.737 423.793 216.392 422.071 214.892C420.422 213.442 419.29 211.056 419.29 209.089C419.241 208.597 418.724 203.827 419.462 197.925L420.324 189.958C420.25 189.663 420.299 189.171 420.594 188.163C421.579 184.868 427.042 171.737 431.594 170.876C432.258 170.753 433.267 170.827 434.128 171.958C436.122 174.54 437.131 177.565 436.737 179.851C436.515 181.179 435.826 182.261 434.744 182.974C431.791 184.917 432.75 187.72 432.775 187.819C437.229 204.515 437.795 207.565 435.925 212.925C434.99 215.606 433.932 217.106 432.48 217.794C431.938 218.089 431.274 218.237 430.511 218.237ZM421.382 189.638C421.431 189.737 421.431 189.835 421.431 189.933L420.545 198.073C419.782 204.048 420.373 208.966 420.373 209.015C420.373 209.04 420.373 209.065 420.373 209.089C420.373 210.761 421.382 212.876 422.784 214.106C424.335 215.483 425.122 215.753 426.426 216.22L426.5 216.245C429.256 217.253 430.856 217.425 432.061 216.86C433.218 216.319 434.104 215.015 434.941 212.606C436.712 207.54 436.146 204.54 431.791 188.163C431.791 188.163 430.511 184.499 434.178 182.089C435.014 181.548 435.507 180.737 435.679 179.679C436.023 177.687 435.088 174.983 433.292 172.622C432.75 171.933 432.185 171.761 431.446 172.056C427.263 173.704 421.382 188.065 421.382 189.638Z" fill="#000091"/>
<path d="M423.916 179.212C423.916 179.212 416.46 179.999 414.147 178.18C412.425 176.827 415.624 172.794 415.87 172.475C417.887 169.819 422.612 163.598 423.326 162.712C423.966 161.926 425.171 160.007 426.771 160.155C428.37 160.303 437.155 161.753 437.795 162.024C439.124 162.614 438.558 164.483 437.598 165.516C436.614 166.524 423.916 179.212 423.916 179.212Z" fill="#E1000F"/>
<path d="M420.373 179.926C418.035 179.926 415.181 179.68 413.803 178.598C411.982 177.172 414.024 173.95 415.402 172.18C417.002 170.09 422.145 163.303 422.907 162.368C422.981 162.27 423.055 162.172 423.153 162.049C423.892 161.09 425.122 159.467 426.82 159.614C428.149 159.737 437.229 161.188 438.016 161.532C438.607 161.778 438.976 162.246 439.099 162.86C439.321 163.942 438.706 165.147 437.992 165.885C437.008 166.893 424.827 179.09 424.31 179.606C424.212 179.705 424.113 179.754 423.99 179.754C423.842 179.754 422.268 179.926 420.373 179.926ZM426.599 160.672C425.54 160.672 424.581 161.926 423.99 162.688C423.892 162.811 423.818 162.934 423.719 163.032C422.981 163.942 417.838 170.729 416.263 172.795C414.713 174.787 413.581 177.073 414.442 177.762C416.14 179.114 421.48 178.893 423.646 178.696C425.024 177.319 436.269 166.082 437.18 165.123C437.77 164.508 438.115 163.623 438.016 163.057C437.967 162.811 437.82 162.639 437.574 162.516C436.958 162.27 428.444 160.844 426.722 160.696C426.672 160.672 426.648 160.672 426.599 160.672Z" fill="white"/>
<path d="M361.733 241.227C361.733 241.227 354.523 301.104 353.637 312.637C352.751 324.194 351.422 364.621 353.637 384.612C355.089 397.571 356.073 406.227 356.59 410.727C356.836 412.817 358.608 414.391 360.699 414.391H375.39C376.153 414.391 376.743 413.801 376.768 413.039C376.842 407.653 377.309 387.096 380.754 369.514C384.766 349.08 389.195 317.088 391.434 304.202C392.172 299.899 392.812 295.129 393.329 290.457C393.329 290.457 393.329 290.457 395.002 295.325C396.676 300.194 403 333.096 404.772 345.957C406.396 357.686 409.103 404.678 409.595 413.088C409.644 413.801 410.234 414.366 410.973 414.366H429.773C430.487 414.366 431.077 413.825 431.126 413.137C432.012 404.432 437.155 351.784 436.343 328.178C435.457 302.407 423.892 271.768 421.677 263.309C419.462 254.875 416.46 233.457 416.46 233.457C416.46 233.457 371.379 234.17 361.733 241.227Z" fill="white"/>
<path d="M429.748 414.932H410.948C409.939 414.932 409.102 414.146 409.029 413.137C408.512 403.965 405.83 357.662 404.206 346.055C402.409 332.973 396.11 300.367 394.461 295.523L393.575 292.916C393.058 297.293 392.517 301.031 391.951 304.326C391.188 308.801 390.13 315.564 388.949 323.408C386.71 338.064 383.904 356.309 381.296 369.637C377.9 387.047 377.383 407.26 377.309 413.064C377.285 414.096 376.448 414.957 375.39 414.957H360.699C358.312 414.957 356.319 413.187 356.048 410.826C355.581 406.769 354.572 397.99 353.095 384.711C350.93 365.26 352.111 325.375 353.095 312.637C353.981 301.203 361.118 241.793 361.191 241.203C361.216 241.055 361.29 240.908 361.413 240.834C371.084 233.752 414.59 233.014 416.436 232.99C416.706 232.99 416.928 233.186 416.977 233.457C417.002 233.678 419.979 254.924 422.169 263.236C422.612 264.908 423.424 267.49 424.458 270.736C428.543 283.596 436.146 307.523 436.86 328.203C437.672 351.637 432.652 403.129 431.643 413.236C431.569 414.195 430.733 414.932 429.748 414.932ZM393.329 289.916C393.55 289.916 393.772 290.064 393.846 290.285L395.519 295.154C397.192 300.047 403.517 332.777 405.313 345.908C406.912 357.564 409.619 403.892 410.136 413.064C410.161 413.506 410.53 413.851 410.973 413.851H429.773C430.191 413.851 430.56 413.531 430.61 413.113C431.619 403.031 436.614 351.613 435.826 328.228C435.113 307.695 427.558 283.842 423.473 271.031C422.44 267.76 421.628 265.178 421.16 263.482C419.142 255.809 416.46 237.268 416.017 234.047C411.194 234.145 371.502 235.154 362.274 241.523C361.782 245.654 355.064 301.646 354.203 312.687C353.219 325.4 352.037 365.162 354.203 384.539C355.679 397.818 356.688 406.596 357.156 410.654C357.377 412.473 358.903 413.826 360.724 413.826H375.415C375.858 413.826 376.227 413.457 376.251 413.014C376.325 407.211 376.817 386.9 380.262 369.391C382.871 356.064 385.676 337.842 387.915 323.187C389.121 315.342 390.155 308.58 390.942 304.08C391.606 300.244 392.222 295.744 392.837 290.359C392.861 290.113 393.058 289.916 393.329 289.891C393.28 289.916 393.304 289.916 393.329 289.916Z" fill="#000091"/>
<path d="M393.354 290.827C393.329 290.827 393.304 290.827 393.304 290.827C393.009 290.802 392.788 290.532 392.837 290.237C393.132 287.557 393.427 284.729 393.698 281.778C394.239 275.999 398.127 270.958 403.59 268.917L406.839 267.712C407.109 267.614 407.429 267.761 407.528 268.032C407.626 268.302 407.478 268.622 407.208 268.72L403.959 269.925C398.89 271.794 395.273 276.491 394.781 281.852C394.51 284.802 394.215 287.655 393.92 290.335C393.846 290.63 393.624 290.827 393.354 290.827Z" fill="#000091"/>
<path d="M425.614 414.368H413.655C412.794 414.368 412.031 414.884 411.711 415.671C410.653 418.253 408.487 424.278 408.783 430.007C408.856 431.581 410.161 432.786 411.736 432.786H446.875C448.499 432.786 449.73 431.31 449.385 429.737C448.992 427.843 447.663 425.359 443.799 423.097C437.549 419.458 429.724 415.843 427.238 414.712C426.746 414.491 426.18 414.368 425.614 414.368Z" fill="white"/>
<path d="M446.875 433.352H411.711C409.841 433.352 408.315 431.901 408.217 430.056C407.921 424.155 410.21 417.909 411.194 415.475C411.612 414.491 412.548 413.852 413.63 413.852H425.614C426.254 413.852 426.894 413.999 427.46 414.245C429.773 415.278 437.77 418.991 444.07 422.655C448.204 425.065 449.533 427.794 449.902 429.638C450.099 430.548 449.853 431.483 449.262 432.196C448.696 432.934 447.81 433.352 446.875 433.352ZM413.655 414.909C413.015 414.909 412.449 415.278 412.228 415.868C411.268 418.229 409.053 424.302 409.324 429.983C409.398 431.261 410.456 432.27 411.736 432.27H446.875C447.49 432.27 448.056 431.999 448.45 431.532C448.844 431.065 448.992 430.45 448.868 429.884C448.524 428.237 447.343 425.827 443.553 423.614C437.303 419.975 429.33 416.286 427.042 415.253C426.599 415.056 426.131 414.958 425.639 414.958H413.655V414.909Z" fill="#000091"/>
<path d="M427.263 422.777C427.115 422.777 426.992 422.728 426.869 422.605C426.648 422.384 426.672 422.04 426.869 421.843L431.914 416.876C432.135 416.654 432.48 416.679 432.677 416.876C432.898 417.097 432.874 417.441 432.677 417.638L427.632 422.605C427.534 422.728 427.386 422.777 427.263 422.777Z" fill="#E1000F"/>
<path d="M430.511 424.819C430.364 424.819 430.24 424.77 430.117 424.647C429.896 424.426 429.921 424.082 430.117 423.885L435.162 418.918C435.383 418.696 435.728 418.721 435.925 418.918C436.146 419.139 436.122 419.483 435.925 419.68L430.88 424.647C430.782 424.77 430.634 424.819 430.511 424.819Z" fill="#E1000F"/>
<path d="M372.757 414.368H360.773C359.912 414.368 359.149 414.884 358.829 415.671C357.771 418.253 355.605 424.278 355.901 430.007C355.975 431.581 357.279 432.786 358.854 432.786H394.018C395.642 432.786 396.873 431.31 396.528 429.737C396.134 427.843 394.805 425.359 390.942 423.097C384.692 419.458 376.866 415.843 374.381 414.712C373.864 414.491 373.323 414.368 372.757 414.368Z" fill="white"/>
<path d="M394.018 433.352H358.854C356.984 433.352 355.458 431.901 355.359 430.056C355.064 424.155 357.353 417.909 358.337 415.475C358.755 414.491 359.69 413.852 360.773 413.852H372.757C373.397 413.852 374.037 413.999 374.603 414.245C376.916 415.302 384.913 418.991 391.213 422.655C395.347 425.065 396.676 427.794 397.045 429.638C397.242 430.548 396.996 431.483 396.405 432.196C395.839 432.934 394.953 433.352 394.018 433.352ZM360.773 414.909C360.133 414.909 359.567 415.278 359.346 415.868C358.386 418.229 356.171 424.302 356.442 429.983C356.516 431.261 357.574 432.27 358.854 432.27H394.018C394.633 432.27 395.199 431.999 395.593 431.532C395.987 431.065 396.134 430.45 396.011 429.86C395.667 428.212 394.486 425.802 390.696 423.589C384.446 419.95 376.473 416.286 374.184 415.229C373.741 415.032 373.274 414.934 372.782 414.934H360.773V414.909Z" fill="#000091"/>
<path d="M373.028 422.335C372.88 422.335 372.757 422.286 372.634 422.163C372.412 421.942 372.437 421.598 372.634 421.401L377.679 416.434C377.9 416.212 378.245 416.237 378.441 416.434C378.663 416.655 378.638 416.999 378.441 417.196L373.397 422.163C373.323 422.286 373.175 422.335 373.028 422.335Z" fill="#E1000F"/>
<path d="M376.3 424.376C376.153 424.376 376.03 424.327 375.907 424.204C375.685 423.982 375.71 423.638 375.907 423.441L380.951 418.474C381.173 418.253 381.517 418.278 381.714 418.474C381.936 418.696 381.911 419.04 381.714 419.237L376.67 424.204C376.571 424.327 376.424 424.376 376.3 424.376Z" fill="#E1000F"/>
<path d="M386.562 129.023C386.833 129.122 387.103 129.22 387.399 129.368C387.399 129.368 388.063 129.761 388.678 130.892C389.293 131.999 390.302 135.441 391.606 135.245C392.911 135.048 394.535 129.687 394.535 129.687C394.535 129.687 395.052 127.056 399.087 128.064C403.123 129.073 406.273 130.794 407.478 131.507C408.684 132.22 409.816 132.417 411.022 132.319C412.228 132.22 416.19 129.884 415.476 126.146C414.762 122.409 411.317 119.851 408.29 119.876C405.141 119.9 400.588 117.859 399.801 117.441C398.989 117.048 394.215 115.081 391.631 116.532C389.318 117.81 387.374 119.876 386.316 123.417C385.651 125.679 386.168 127.745 386.242 128.433C386.267 128.679 386.316 128.95 386.562 129.023Z" fill="#000091"/>
<path d="M408.02 131.877C408.094 131.926 408.143 132 408.143 132.074C408.094 132.688 407.971 135.246 408.34 137.557C408.561 138.836 409.373 141.91 409.029 142.549C408.684 143.188 407.405 143.238 406.814 143.188C406.223 143.139 405.239 143.385 404.993 143.877C404.747 144.369 404.009 148.918 403.713 150C403.418 151.082 402.434 152.36 400.613 152.164C400.391 152.139 399.702 151.992 399.186 151.869C398.792 151.77 398.423 152.041 398.374 152.41C397.512 157.942 403.098 164.188 404.452 165.615C404.599 165.762 404.55 166.008 404.353 166.082C391.926 171.492 379.155 162.147 375.685 159.246C375.538 159.123 382.206 157.303 385.405 149.631C386.808 146.262 386.34 141 386.39 138.934C386.39 138.516 386.168 138.123 385.774 137.951C384.938 137.557 383.707 136.278 383.363 135.024C382.846 133.205 383.068 127.401 387.866 129.737C387.866 129.737 388.531 130.131 389.146 131.262C389.761 132.369 390.77 135.811 392.074 135.615C393.378 135.418 395.002 130.057 395.002 130.057C395.002 130.057 395.519 127.426 399.555 128.434C403.197 129.319 407.257 131.459 408.02 131.877Z" fill="white"/>
<path d="M396.257 168.294C386.636 168.294 378.171 162.024 375.341 159.663C375.193 159.54 375.119 159.344 375.144 159.171C375.193 158.852 375.415 158.753 375.833 158.581C380.115 156.712 383.166 153.639 384.889 149.458C385.971 146.876 385.897 143.065 385.848 140.557C385.824 139.917 385.824 139.352 385.824 138.934C385.824 138.737 385.725 138.54 385.528 138.466C384.544 137.999 383.215 136.573 382.822 135.196C382.452 133.868 382.428 130.647 384.052 129.294C384.741 128.729 385.996 128.262 388.088 129.27C388.211 129.344 388.949 129.811 389.589 131.016C389.736 131.311 389.909 131.704 390.105 132.171C390.475 133.057 391.36 135.171 391.951 135.073C392.468 134.975 393.649 132.516 394.436 129.909C394.486 129.712 394.732 128.827 395.691 128.212C396.651 127.598 398.004 127.499 399.653 127.893C403.369 128.827 407.454 130.991 408.241 131.409C408.512 131.557 408.66 131.827 408.635 132.122C408.61 132.614 408.463 135.196 408.832 137.483C408.881 137.803 408.979 138.221 409.078 138.712C409.595 141.122 409.767 142.278 409.472 142.844C408.906 143.901 407.109 143.803 406.74 143.753C406.248 143.704 405.559 143.95 405.461 144.147C405.338 144.417 405.018 146.114 404.796 147.368C404.575 148.573 404.353 149.68 404.23 150.171C403.836 151.598 402.557 152.95 400.564 152.729C400.49 152.729 400.244 152.704 399.063 152.409C399.013 152.409 398.964 152.409 398.964 152.434C398.94 152.458 398.915 152.483 398.915 152.532C398.103 157.671 403.246 163.573 404.845 165.27C405.042 165.467 405.116 165.737 405.067 166.007C405.018 166.278 404.821 166.499 404.575 166.598C401.769 167.803 398.964 168.294 396.257 168.294ZM376.67 159.368C380.853 162.688 392.394 170.458 403.812 165.737C401.917 163.671 396.996 157.721 397.832 152.335C397.881 151.991 398.078 151.696 398.349 151.524C398.62 151.327 398.989 151.278 399.309 151.352C400.342 151.598 400.613 151.647 400.687 151.647C402.139 151.794 402.951 150.786 403.197 149.876C403.32 149.434 403.541 148.278 403.738 147.147C404.156 144.958 404.353 143.95 404.501 143.655C404.895 142.893 406.125 142.622 406.839 142.671C407.601 142.745 408.389 142.573 408.512 142.327C408.66 141.934 408.217 139.917 408.02 138.934C407.921 138.442 407.823 137.999 407.774 137.655C407.405 135.516 407.503 133.18 407.552 132.27C406.469 131.704 402.754 129.786 399.407 128.95C398.078 128.606 396.996 128.68 396.307 129.122C395.667 129.54 395.519 130.13 395.519 130.155C395.519 130.18 395.519 130.18 395.494 130.204C394.978 131.926 393.624 135.909 392.123 136.155C390.721 136.376 389.81 134.286 389.121 132.589C388.949 132.171 388.777 131.778 388.654 131.532C388.186 130.671 387.694 130.303 387.595 130.229C386.34 129.639 385.405 129.614 384.766 130.13C383.584 131.114 383.56 133.77 383.88 134.901C384.2 136.057 385.332 137.188 385.996 137.483C386.562 137.753 386.931 138.344 386.931 138.983C386.931 139.401 386.931 139.942 386.931 140.557C386.98 143.163 387.054 147.073 385.897 149.876C384.101 154.155 381.001 157.376 376.67 159.368Z" fill="#000091"/>
<path d="M398.866 152.311C398.817 152.311 398.767 152.311 398.718 152.286C397.045 151.794 394.363 150.638 392.468 149.409C392.222 149.237 392.148 148.917 392.32 148.647C392.492 148.401 392.812 148.327 393.058 148.499C394.855 149.679 397.414 150.786 399.013 151.253C399.309 151.327 399.456 151.647 399.382 151.917C399.309 152.163 399.087 152.311 398.866 152.311Z" fill="#000091"/>
<path d="M106.256 418.501C106.256 418.501 104.804 428.829 108.151 433.181L109.16 435.026L92.2789 433.034L93.214 431.239C94.8873 428.042 95.724 424.55 95.6502 421.058L106.256 418.501Z" fill="white"/>
<path d="M109.16 435.591C109.135 435.591 109.111 435.591 109.086 435.591L92.2051 433.599C92.0328 433.574 91.8606 433.476 91.7868 433.304C91.7129 433.156 91.7129 432.96 91.7868 432.812L92.7218 431.017C94.3459 427.919 95.158 424.476 95.1088 421.107C95.1088 420.861 95.281 420.64 95.5271 420.566L106.133 417.984C106.305 417.935 106.502 417.984 106.625 418.107C106.748 418.23 106.822 418.402 106.797 418.574C106.773 418.673 105.419 428.73 108.594 432.861C108.618 432.886 108.618 432.91 108.643 432.935L109.652 434.779C109.75 434.951 109.75 435.173 109.627 435.345C109.504 435.492 109.332 435.591 109.16 435.591ZM93.1156 432.615L108.175 434.386L107.683 433.501C104.78 429.665 105.346 421.771 105.616 419.214L96.1915 421.501C96.1915 424.919 95.3056 428.361 93.6815 431.509L93.1156 432.615Z" fill="#000091"/>
<path d="M108.471 427.475L110.144 429.443C113.491 433.352 117.723 436.377 122.497 438.295L126.164 439.77C126.508 439.918 126.779 440.213 126.853 440.582L126.902 440.779C127.369 442.844 124.884 447.516 117.329 448.943C112.654 449.828 101.728 450.246 88.7108 444.934C87.8987 444.59 87.382 443.779 87.4558 442.893C87.7511 439.672 88.7108 431.975 91.7129 428.213C92.0574 427.795 92.6726 427.746 93.0417 428.115L96.7083 431.729C98.357 433.352 101.015 433.328 102.614 431.656L106.724 427.426C107.191 426.91 108.003 426.934 108.471 427.475Z" fill="white"/>
<path d="M110.685 450C105.444 450 97.6188 449.139 88.4647 445.426C87.4066 445.008 86.7668 443.951 86.8652 442.82C87.1359 439.623 88.1448 431.729 91.2454 427.844C91.5161 427.524 91.8852 427.328 92.3035 427.303C92.6972 427.279 93.091 427.426 93.3863 427.721L97.0528 431.336C97.7418 432.024 98.6523 432.393 99.6366 432.369C100.596 432.369 101.507 431.975 102.196 431.262L106.305 427.033C106.65 426.688 107.117 426.492 107.609 426.516C108.102 426.541 108.545 426.762 108.864 427.131L110.538 429.098C113.811 432.91 117.994 435.934 122.669 437.779L126.336 439.229C126.853 439.426 127.222 439.893 127.345 440.434L127.394 440.631C127.616 441.664 127.271 442.967 126.434 444.246C125.45 445.721 122.989 448.377 117.403 449.459C116.542 449.631 114.18 450 110.685 450ZM92.4019 428.385C92.3773 428.385 92.3773 428.385 92.4019 428.385C92.2789 428.385 92.1805 428.434 92.1067 428.533C89.1783 432.172 88.2433 439.819 87.9726 442.918C87.9234 443.557 88.2925 444.172 88.8831 444.418C103.845 450.492 115.09 448.795 117.206 448.401C122.399 447.418 124.663 445.008 125.548 443.656C126.336 442.451 126.484 441.442 126.361 440.877L126.311 440.68C126.262 440.483 126.139 440.336 125.942 440.262L122.276 438.787C117.453 436.869 113.097 433.746 109.726 429.787L108.052 427.82C107.929 427.672 107.757 427.598 107.585 427.598C107.413 427.598 107.24 427.672 107.093 427.795L102.983 432.024C102.097 432.934 100.916 433.426 99.6612 433.451C98.4062 433.475 97.2004 432.983 96.3146 432.098L92.648 428.483C92.5496 428.41 92.4512 428.385 92.4019 428.385Z" fill="#000091"/>
<path d="M107.068 443.239C101.433 443.19 95.9946 442.009 90.9008 439.698L88.0464 438.419C87.7757 438.296 87.6526 437.976 87.7757 437.706C87.8987 437.435 88.2186 437.313 88.4893 437.435L91.3438 438.714C96.3145 440.952 101.605 442.108 107.068 442.157C107.265 442.157 107.437 442.058 107.536 441.911C107.659 441.763 107.683 441.567 107.609 441.37L107.117 439.894C106.92 439.304 107.093 438.69 107.56 438.296C108.028 437.903 108.643 437.804 109.209 438.05L110.636 438.714C114.746 440.608 119.52 440.755 123.727 439.083L124.564 438.763C124.835 438.665 125.155 438.788 125.278 439.058C125.376 439.329 125.253 439.649 124.982 439.772L124.146 440.091C119.667 441.862 114.573 441.714 110.218 439.698L108.791 439.034C108.545 438.935 108.372 439.058 108.323 439.108C108.274 439.157 108.126 439.304 108.2 439.55L108.692 441.026C108.864 441.542 108.766 442.083 108.446 442.526C108.102 442.993 107.609 443.239 107.068 443.239Z" fill="#E1000F"/>
<path d="M31.7932 398.361C31.7932 398.361 24.6816 406.254 24.657 411.836L24.3371 413.976L12.1071 400.721L14.0265 400.131C17.1517 398.385 20.3507 397.451 22.3439 394.476L31.7932 398.361Z" fill="white"/>
<path d="M24.3371 414.516C24.1895 414.516 24.0418 414.467 23.9434 414.344L11.7134 401.09C11.5904 400.943 11.5411 400.771 11.5904 400.574C11.6396 400.402 11.7872 400.254 11.9595 400.205L13.8297 399.639C14.5925 399.221 15.3799 398.828 16.1182 398.459C18.3575 397.353 20.4983 396.295 21.901 394.18C22.0486 393.959 22.3193 393.885 22.5654 393.984L32.0147 397.869C32.187 397.943 32.31 398.066 32.3346 398.238C32.3838 398.41 32.3346 398.582 32.2116 398.73C32.1378 398.803 25.2476 406.525 25.1984 411.861C25.1984 411.885 25.1984 411.91 25.1984 411.934L24.8785 414.074C24.8539 414.271 24.7062 414.443 24.5094 414.516C24.4356 414.516 24.3863 414.516 24.3371 414.516ZM13.0914 400.992L23.968 412.771L24.1157 411.787C24.1649 406.894 29.2341 400.5 30.8828 398.557L22.5162 395.139C20.9659 397.254 18.825 398.312 16.5611 399.418C15.7983 399.787 15.0354 400.18 14.2726 400.598C14.248 400.623 14.1988 400.623 14.1742 400.648L13.0914 400.992Z" fill="#000091"/>
<path d="M27.1916 409.278L26.7487 411.885C25.8874 417.024 26.2811 422.311 27.9299 427.278L29.1848 431.09C29.3079 431.458 29.2341 431.852 29.0126 432.147L28.8896 432.295C27.5607 434.016 22.3193 435.122 16.2412 430.18C12.4762 427.131 5.04473 418.893 0.639956 405.27C0.369272 404.409 0.664564 403.475 1.4274 402.958C4.13424 401.065 10.7537 396.786 15.6506 396.688C16.192 396.663 16.6349 397.131 16.5857 397.672L16.1674 402.885C15.9951 405.221 17.7423 407.262 20.08 407.434L26.0597 407.876C26.7979 407.926 27.2901 408.565 27.1916 409.278Z" fill="white"/>
<path d="M24.8539 434.286C22.8607 434.286 19.6617 433.647 15.8967 430.598C14.1742 429.196 5.2416 421.352 0.123203 405.442C-0.221304 404.336 0.172418 403.18 1.10751 402.516C3.78974 400.647 10.5815 396.27 15.626 396.147C16.0444 396.147 16.4381 396.295 16.7334 396.614C17.0041 396.909 17.1517 397.303 17.1271 397.721L16.7088 402.934C16.6349 403.917 16.9548 404.876 17.5946 405.639C18.2344 406.401 19.1449 406.844 20.1292 406.917L26.1089 407.36C26.601 407.385 27.044 407.631 27.3639 408.024C27.6592 408.417 27.7822 408.909 27.7084 409.401L27.2655 412.008C26.4288 417.049 26.8225 422.286 28.422 427.131L29.677 430.942C29.8493 431.483 29.7508 432.049 29.4063 432.516L29.2833 432.663C28.6435 433.499 27.3885 434.09 25.8382 434.262C25.5921 434.262 25.2476 434.286 24.8539 434.286ZM15.6752 397.204C10.9014 397.327 4.33111 401.557 1.74731 403.376C1.20594 403.77 0.959863 404.458 1.18133 405.098C6.2259 420.713 14.9124 428.36 16.6103 429.737C20.7936 433.131 24.1403 433.327 25.7644 433.131C27.2162 432.958 28.1021 432.393 28.4712 431.95L28.5943 431.803C28.7173 431.631 28.7419 431.434 28.6927 431.237L27.4377 427.426C25.789 422.409 25.3707 416.999 26.2319 411.786L26.6749 409.18C26.6995 408.983 26.6503 408.811 26.5518 408.663C26.4288 408.516 26.2565 408.417 26.0843 408.417L20.1046 407.975C18.825 407.876 17.6685 407.286 16.8318 406.327C15.9951 405.344 15.6014 404.114 15.6999 402.835L16.1182 397.622C16.1182 397.475 16.069 397.401 16.0198 397.352C15.8721 397.254 15.7737 397.204 15.6752 397.204Z" fill="#000091"/>
<path d="M28.6189 430.23C28.5204 430.23 28.4466 430.206 28.3728 430.156L27.5853 429.738C23.279 427.402 20.08 423.369 18.8004 418.624L18.3821 417.074C18.3083 416.804 18.0868 416.755 18.013 416.755C17.9391 416.755 17.7177 416.73 17.57 416.951L16.7334 418.279C16.4381 418.747 15.9705 419.042 15.4046 419.066C14.8632 419.115 14.3464 418.869 13.9773 418.451C10.36 414.05 7.72696 409.058 6.17668 403.574L5.31541 400.501C5.24159 400.206 5.38924 399.91 5.68453 399.837C5.97982 399.763 6.27511 399.91 6.34893 400.206L7.2102 403.279C8.71127 408.615 11.2705 413.484 14.814 417.763C14.937 417.91 15.1339 417.984 15.3307 417.984C15.5276 417.96 15.6998 417.861 15.7983 417.689L16.6349 416.361C16.9548 415.845 17.5454 415.574 18.1606 415.648C18.7758 415.747 19.2433 416.165 19.4156 416.755L19.8339 418.304C21.0397 422.755 24.0418 426.542 28.1021 428.73L28.8896 429.148C29.1602 429.296 29.2587 429.615 29.111 429.886C29.0126 430.107 28.8157 430.23 28.6189 430.23Z" fill="#E1000F"/>
<path d="M79.7792 269.563C80.6456 271.229 82.0007 272.605 83.6649 273.493L84.6864 274.019C87.0794 275.221 89.5334 276.245 92.1024 276.955L93.2343 277.268C100.263 278.753 107.641 278.504 113.294 277.872C116.119 277.556 118.499 277.145 120.171 276.814C121.006 276.649 121.664 276.505 122.111 276.401C122.335 276.35 122.506 276.308 122.62 276.28C122.677 276.266 122.719 276.255 122.747 276.248C122.761 276.245 122.772 276.242 122.778 276.24C122.781 276.239 122.784 276.239 122.785 276.238H122.786L123.745 275.988L124.004 276.944L123.039 277.206C124.004 276.945 124.004 276.945 124.004 276.945L124.005 276.946C124.005 276.948 124.005 276.95 124.006 276.952C124.007 276.957 124.009 276.965 124.012 276.975C124.017 276.994 124.025 277.024 124.035 277.062C124.056 277.14 124.086 277.255 124.126 277.405C124.205 277.706 124.321 278.151 124.467 278.726C124.759 279.876 125.174 281.549 125.665 283.647C126.647 287.843 127.934 293.74 129.159 300.546C131.605 314.139 133.814 331.432 132.797 346.054C131.777 360.699 125.623 379.681 119.77 394.927C116.838 402.566 113.969 409.297 111.833 414.118C110.765 416.529 109.88 418.463 109.262 419.795C108.952 420.461 108.709 420.977 108.544 421.326C108.461 421.501 108.397 421.634 108.354 421.724C108.333 421.769 108.317 421.803 108.306 421.826C108.3 421.837 108.296 421.846 108.293 421.852C108.291 421.854 108.291 421.857 108.29 421.858L108.289 421.86C108.285 421.859 108.228 421.832 107.388 421.427L108.289 421.861L108.103 422.246L107.698 422.378C103.433 423.768 99.546 423.625 96.7313 423.138C95.3231 422.894 94.1774 422.563 93.3788 422.291C92.9796 422.155 92.6663 422.033 92.4491 421.943C92.3405 421.899 92.2555 421.861 92.1962 421.835C92.1665 421.822 92.1427 421.811 92.1259 421.804C92.1175 421.8 92.1105 421.796 92.1053 421.794C92.103 421.793 92.1011 421.792 92.0995 421.791L92.0966 421.79L92.0956 421.789L91.6434 421.574L91.5448 421.084C85.6928 392.093 91.5674 365.533 93.8446 356.702C94.9955 352.227 95.969 345.381 95.2538 337.411C91.5804 345.993 85.724 359.045 80.6893 367.351L80.1337 368.253C73.0155 379.611 60.4124 388.884 49.6913 395.289C44.3152 398.501 39.3797 401.011 35.788 402.718C33.9919 403.571 32.5306 404.225 31.5165 404.666C31.0096 404.886 30.6141 405.053 30.3446 405.166C30.2098 405.222 30.1061 405.265 30.036 405.294C30.001 405.308 29.9742 405.32 29.9559 405.327C29.9471 405.331 29.9402 405.333 29.9354 405.335C29.933 405.336 29.9309 405.337 29.9296 405.338H29.9276V405.339L29.5555 405.488L29.1825 405.339L29.0594 405.29L29.0331 405.279L29.0077 405.268C24.1868 403.016 20.751 398.564 19.8329 393.321L19.786 393.05L19.8837 392.793C26.5917 375.141 38.9295 360.07 49.4696 346.251C54.7586 339.317 59.593 332.705 63.1151 326.196C66.6353 319.692 68.8071 313.356 68.8368 306.979L68.8485 305.881C69.0414 294.602 71.2593 285.632 73.4686 279.419C74.6089 276.213 75.7471 273.74 76.6044 272.063C77.033 271.225 77.3919 270.585 77.6454 270.151C77.772 269.935 77.8723 269.77 77.9423 269.657C77.9771 269.601 78.0042 269.557 78.0233 269.527C78.0328 269.512 78.0404 269.501 78.0458 269.492C78.0484 269.488 78.051 269.485 78.0526 269.482C78.0534 269.481 78.054 269.479 78.0546 269.479L78.0555 269.478C78.0562 269.477 78.0728 269.488 78.66 269.873L78.0565 269.478L78.9921 268.05L79.7792 269.563Z" fill="white" stroke="#000091" stroke-width="2"/>
<path d="M100.695 423.025C95.8716 423.025 92.5004 421.476 92.3035 421.378C92.1559 421.304 92.0328 421.156 92.0082 420.984C86.3484 392.976 91.7129 366.787 94.2967 356.804C95.281 352.943 96.7083 345.246 95.5271 335.582C91.6883 344.656 85.1673 359.361 79.7536 367.992C65.8503 390.197 30.1199 404.755 29.7754 404.902C29.6278 404.951 29.4801 404.951 29.3325 404.902L29.2095 404.853C24.534 402.664 21.1874 398.337 20.3015 393.246C20.2769 393.148 20.3015 393.05 20.3261 392.951C26.355 377.115 36.6902 363.64 46.6809 350.632C58.2711 335.533 69.2215 321.296 69.2953 306.959C69.4184 283.722 78.351 269.828 78.4248 269.705C78.5232 269.533 78.7201 269.459 78.9169 269.459C79.1138 269.459 79.286 269.582 79.3599 269.755C80.2704 271.525 81.673 272.951 83.4201 273.886C86.5207 275.533 89.2275 276.64 91.9344 277.402L93.0909 277.722C93.1155 277.722 93.1402 277.746 93.1648 277.746C107.191 280.697 122.694 276.738 122.842 276.689C123.137 276.615 123.432 276.787 123.506 277.082C123.604 277.476 134.284 317.287 132.291 346.009C130.298 374.755 108.052 421.205 107.831 421.673C107.757 421.796 107.659 421.919 107.511 421.943C105.099 422.755 102.762 423.025 100.695 423.025ZM93.0171 420.517C94.2721 421.033 100.129 423.148 107.019 420.984C108.643 417.566 129.363 373.501 131.282 345.935C133.128 319.132 123.9 282.591 122.645 277.869C119.79 278.533 105.715 281.509 92.8941 278.804C92.8449 278.804 92.7957 278.779 92.771 278.755L91.7129 278.459C88.9323 277.697 86.1516 276.541 82.9772 274.869C81.3039 273.984 79.9258 272.705 78.9169 271.107C77.096 274.304 70.5257 287.189 70.4273 307.009C70.3535 321.689 59.3046 336.099 47.5914 351.32C37.6745 364.23 27.4131 377.582 21.4334 393.222C22.2947 397.869 25.3461 401.828 29.6278 403.845C32.6299 402.591 65.7272 388.451 78.8923 367.451C84.6505 358.255 91.6883 342.148 95.3549 333.369C95.4533 333.148 95.6747 333 95.9208 333.05C96.1669 333.074 96.3638 333.271 96.3884 333.517C98.0371 344.287 96.4622 352.943 95.3795 357.123C92.7957 366.96 87.4804 392.828 93.0171 420.517Z" fill="white"/>
<path d="M166.594 204.075C167.923 204.665 169.448 204.05 170.014 202.698L178.11 183.714L173.312 181.624L165.216 200.608C164.65 201.936 165.265 203.485 166.594 204.075Z" fill="#E1000F"/>
<path d="M167.628 204.837C167.209 204.837 166.766 204.739 166.373 204.567C164.773 203.878 164.035 202.009 164.724 200.386L172.82 181.403C172.869 181.28 172.992 181.157 173.115 181.108C173.238 181.059 173.41 181.059 173.533 181.108L178.332 183.198C178.603 183.321 178.726 183.64 178.603 183.911L170.507 202.895C170.162 203.681 169.572 204.272 168.784 204.591C168.415 204.763 168.021 204.837 167.628 204.837ZM173.607 182.337L165.733 200.829C165.29 201.886 165.782 203.116 166.815 203.583C167.332 203.804 167.874 203.804 168.39 203.608C168.907 203.411 169.301 203.018 169.522 202.501L177.397 184.009L173.607 182.337Z" fill="white"/>
<path d="M144.299 148.871C150.156 174.42 175.453 190.453 200.799 184.65C226.145 178.846 241.943 153.42 236.086 127.846C230.229 102.272 204.933 86.2642 179.587 92.0675C154.241 97.8708 138.443 123.297 144.299 148.871ZM150.353 147.469C145.259 125.264 158.99 103.207 180.989 98.1659C202.989 93.1249 224.963 107.043 230.033 129.248C235.126 151.453 221.395 173.51 199.396 178.551C177.397 183.592 155.447 169.674 150.353 147.469Z" fill="#E1000F"/>
<path d="M190.39 186.371C168.636 186.371 148.877 171.223 143.783 148.969C137.877 123.15 153.872 97.3791 179.464 91.5267C205.056 85.6742 230.697 101.904 236.603 127.723C239.457 140.24 237.341 153.1 230.599 163.945C223.856 174.789 213.324 182.338 200.922 185.166C197.403 185.978 193.859 186.371 190.39 186.371ZM190.021 91.4283C186.625 91.4283 183.18 91.7972 179.71 92.6086C154.709 98.3382 139.058 123.519 144.841 148.748C149.836 170.51 169.129 185.289 190.39 185.289C193.785 185.289 197.231 184.92 200.7 184.109C212.807 181.33 223.118 173.978 229.713 163.355C236.308 152.756 238.375 140.166 235.594 127.945C230.574 106.232 211.257 91.4283 190.021 91.4283ZM190.365 180.125C171.442 180.125 154.266 166.969 149.836 147.617C144.669 125.141 158.597 102.74 180.866 97.625C203.136 92.5349 225.431 106.65 230.574 129.1C235.717 151.551 221.789 173.953 199.544 179.068C196.468 179.781 193.392 180.125 190.365 180.125ZM150.894 147.346C155.914 169.207 177.618 182.978 199.298 178.01C220.977 173.068 234.536 151.232 229.516 129.346C224.496 107.486 202.792 93.7398 181.113 98.6824C159.433 103.65 145.874 125.486 150.894 147.346Z" fill="white"/>
<path d="M167.258 212.533C167.849 212.73 169.768 210.246 170.211 209.828C171.959 208.107 176.043 206.09 176.855 202.476C177.914 197.804 175.896 192.812 174.69 192.959C173.509 193.107 171.983 201.959 167.332 202.304C167.332 202.304 166.274 202.181 166.397 197.804C166.422 197.189 165.757 196.771 165.216 197.041C164.478 197.435 163.518 198.271 162.731 200.041C161.722 202.304 161.919 204.935 162.091 206.508C162.189 207.541 161.82 210.664 162.608 210.935L167.258 212.533Z" fill="white"/>
<path d="M167.332 213.074C167.234 213.074 167.16 213.05 167.086 213.025L162.435 211.402C161.549 211.107 161.525 209.754 161.549 207.713C161.549 207.222 161.574 206.779 161.549 206.509C161.353 204.566 161.254 202.033 162.238 199.771C163.1 197.804 164.207 196.918 164.97 196.5C165.388 196.279 165.88 196.304 166.299 196.55C166.717 196.82 166.963 197.263 166.939 197.73C166.865 200.631 167.308 201.468 167.455 201.664C170.138 201.32 171.712 197.582 172.795 195.074C173.509 193.377 173.927 192.443 174.616 192.345C175.01 192.295 175.404 192.468 175.773 192.886C177.003 194.238 178.283 198.468 177.372 202.525C176.732 205.353 174.272 207.222 172.303 208.722C171.639 209.238 171.023 209.705 170.58 210.123C170.482 210.222 170.31 210.418 170.113 210.664C168.759 212.312 167.972 213.074 167.332 213.074ZM162.829 210.418L167.357 211.992C167.775 211.795 168.883 210.517 169.301 210.05C169.547 209.779 169.719 209.558 169.842 209.435C170.334 208.943 170.974 208.451 171.663 207.935C173.484 206.533 175.773 204.812 176.339 202.353C177.323 198.05 175.527 193.894 174.813 193.525C174.567 193.795 174.149 194.779 173.804 195.59C172.623 198.394 170.827 202.599 167.381 202.845C167.357 202.845 167.308 202.845 167.283 202.845C166.717 202.771 165.757 202.033 165.88 197.804C165.88 197.656 165.782 197.582 165.733 197.558C165.684 197.533 165.585 197.484 165.487 197.533C164.871 197.853 163.986 198.59 163.247 200.263C162.238 202.525 162.534 205.279 162.632 206.459C162.657 206.779 162.657 207.246 162.657 207.787C162.632 208.525 162.583 210.074 162.829 210.418Z" fill="#000091"/>
<path d="M170.285 211.574L160.91 208.131C157.219 214.697 153.281 220.352 148.877 223.893C146.293 225.983 143.487 227.656 140.535 228.983C139.206 229.574 137.655 228.959 137.139 227.606C135.687 223.893 133.251 218.041 128.944 211.131C125.721 205.942 120.332 201.688 115.878 199.475C108.963 196.033 100.892 194.385 93.2386 195.91C78.4248 198.861 68.311 207.492 68.311 207.492C60.2643 213.91 45.3767 236.336 50.6919 247.106C57.1884 260.336 74.7336 252.59 74.7336 252.59C74.7336 252.59 75.1027 258.713 71.4362 267.147C66.9822 277.402 71.3624 280.057 71.3624 280.057C89.3998 299.115 129.412 281.115 126.016 272.951C122.399 264.197 122.325 253.131 122.325 253.131C127.32 258.074 134.161 257.311 134.161 257.311C134.161 257.311 138.098 257.016 140.83 255.885C164.502 248.065 170.285 211.574 170.285 211.574Z" fill="white"/>
<path d="M93.3863 289.082C85.1673 289.082 76.9729 286.795 70.9933 280.5C70.4027 280.082 66.5885 276.935 70.9195 266.951C73.7493 260.435 74.1431 255.271 74.1677 253.402C70.6734 254.705 56.0564 259.304 50.1752 247.353C44.6385 236.066 60.1659 213.271 67.9419 207.074C68.0404 207 78.3264 198.344 93.1156 195.394C100.35 193.943 108.52 195.221 116.124 199.008C120.258 201.049 125.893 205.23 129.412 210.861C133.546 217.476 135.982 223.181 137.655 227.435C137.852 227.951 138.246 228.344 138.738 228.541C139.255 228.763 139.821 228.738 140.338 228.517C143.291 227.189 146.047 225.517 148.557 223.5C152.42 220.377 156.333 215.287 160.467 207.91C160.59 207.689 160.885 207.566 161.131 207.664L170.507 211.107C170.753 211.205 170.9 211.451 170.851 211.697C170.827 211.795 169.35 220.992 164.97 231.049C159.138 244.402 150.87 253.205 141.027 256.451C138.295 257.582 134.383 257.877 134.235 257.902C133.989 257.926 127.935 258.566 122.94 254.459C123.088 257.582 123.703 265.992 126.533 272.828C127.542 275.238 125.401 278.385 120.676 281.459C114.696 285.271 104.017 289.082 93.3863 289.082ZM74.709 252.074C74.8075 252.074 74.9059 252.099 74.9797 252.148C75.1274 252.246 75.2258 252.394 75.2504 252.59C75.275 252.836 75.5703 258.935 71.9038 267.394C67.7451 277.008 71.5839 279.615 71.6085 279.64C71.6577 279.664 71.6823 279.689 71.7069 279.738C85.0196 293.779 109.75 287.164 120.036 280.5C124.22 277.795 126.237 275.066 125.475 273.197C121.857 264.467 121.759 253.279 121.759 253.156C121.759 252.935 121.882 252.738 122.079 252.664C122.276 252.59 122.522 252.615 122.669 252.787C127.443 257.484 133.989 256.82 134.063 256.795C134.112 256.795 137.975 256.5 140.584 255.418C162.337 248.213 168.883 216.074 169.645 211.943L161.131 208.82C157.022 216.123 153.109 221.189 149.196 224.336C146.613 226.402 143.783 228.148 140.731 229.5C139.944 229.844 139.083 229.869 138.295 229.549C137.508 229.23 136.917 228.615 136.597 227.828C134.949 223.648 132.537 217.992 128.452 211.451C125.056 206.017 119.593 201.984 115.607 199.992C108.225 196.328 100.301 195.074 93.3124 196.476C78.8185 199.377 68.7294 207.836 68.6309 207.935C60.7565 214.205 46.0411 236.533 51.1349 246.91C57.336 259.525 74.2907 252.222 74.463 252.148C74.5614 252.099 74.6352 252.074 74.709 252.074Z" fill="#000091"/>
<path d="M74.9305 246.344C74.709 246.344 74.4876 246.197 74.4137 245.976C69.443 231.59 71.7561 219.984 71.7807 219.861C71.8299 219.566 72.1252 219.369 72.4205 219.443C72.7158 219.492 72.9127 219.787 72.8389 220.082C72.8142 220.205 70.575 231.541 75.4473 245.631C75.5457 245.902 75.3981 246.222 75.1028 246.32C75.0535 246.32 74.9797 246.344 74.9305 246.344Z" fill="#000091"/>
<path d="M122.03 253.795C121.882 253.795 121.759 253.746 121.66 253.648C113.884 246.049 108.471 228.443 108.249 227.705C108.151 227.41 108.323 227.115 108.618 227.041C108.914 226.943 109.209 227.115 109.283 227.41C109.332 227.582 114.844 245.484 122.423 252.885C122.645 253.082 122.645 253.426 122.423 253.648C122.3 253.721 122.153 253.795 122.03 253.795Z" fill="#000091"/>
<path d="M101.679 162.887C104.681 162.912 107.437 164.51 108.938 167.092C109.627 168.297 110.267 169.404 110.39 169.723C110.685 170.437 111.325 172.846 113.663 175.182C113.884 175.404 113.934 175.773 113.737 176.043L112.236 177.961C112.137 178.084 112.088 178.256 112.113 178.428C112.285 179.461 113.195 183.174 112.925 183.863C112.359 185.289 108.963 185.682 107.929 185.756C107.733 185.781 107.56 185.879 107.486 186.051C107.167 186.641 106.305 188.338 105.592 192.568C104.509 199.01 110.661 199.994 109.406 200.633C100.695 205.035 84.6259 204.027 85.561 202.207C86.3238 200.707 95.1334 196.797 95.97 186.223C96.4868 179.633 87.2343 179.092 93.903 166.527C95.4041 163.576 98.7753 162.863 101.679 162.887Z" fill="white"/>
<path d="M92.9925 204.272C89.1291 204.272 86.0532 203.78 85.2411 202.994C84.9458 202.699 84.872 202.305 85.0442 201.936C85.2657 201.469 85.8809 201.002 86.816 200.264C89.5967 198.1 94.7643 194.043 95.3795 186.149C95.5517 183.936 94.5428 182.485 93.3862 180.813C91.3192 177.862 88.9815 174.494 93.3862 166.231C94.7397 163.674 97.6188 162.321 101.679 162.346C104.829 162.371 107.806 164.092 109.406 166.821C110.71 169.084 110.858 169.403 110.907 169.526C110.956 169.625 110.981 169.748 111.055 169.895C111.399 170.854 112.113 172.846 114.081 174.789C114.5 175.207 114.549 175.895 114.18 176.362L112.679 178.28C112.703 178.551 112.777 178.92 112.876 179.362C113.441 182.092 113.663 183.469 113.441 184.035C112.802 185.633 109.75 186.125 108.003 186.272C107.068 187.944 106.478 190.649 106.133 192.617C105.444 196.699 107.856 198.395 109.16 199.28C109.75 199.699 110.144 199.969 110.119 200.436C110.095 200.633 110.021 200.879 109.652 201.051C105.149 203.362 98.3324 204.272 92.9925 204.272ZM86.1024 202.305C87.628 203.436 100.842 204.051 108.717 200.338C108.643 200.289 108.594 200.239 108.52 200.19C107.142 199.231 104.238 197.215 105.05 192.444C105.542 189.444 106.207 187.207 107.019 185.756C107.191 185.436 107.536 185.215 107.905 185.19C110.316 184.994 112.137 184.354 112.433 183.641C112.556 183.174 112.039 180.666 111.817 179.584C111.719 179.141 111.645 178.748 111.596 178.526C111.547 178.207 111.621 177.887 111.817 177.641L113.318 175.723C113.343 175.674 113.343 175.625 113.294 175.6C111.153 173.485 110.39 171.346 110.021 170.289C109.972 170.141 109.923 170.043 109.898 169.944C109.849 169.797 109.578 169.28 108.471 167.387C107.068 164.977 104.46 163.453 101.679 163.428C98.0125 163.403 95.5271 164.535 94.3459 166.748C90.2611 174.42 92.3035 177.371 94.2967 180.198C95.4779 181.895 96.6837 183.641 96.4868 186.248C95.847 194.608 90.4333 198.862 87.505 201.125C86.9144 201.592 86.3238 202.035 86.1024 202.305Z" fill="#000091"/>
<path d="M106.773 173.066L110.242 168.689C112.039 166.452 111.399 163.157 108.938 161.706C108.249 161.312 107.437 160.894 106.551 160.501C97.5941 156.64 87.3327 163.009 87.3081 172.747C87.3081 176.73 89.9658 181.353 95.6501 185.484C95.6501 185.484 99.6366 182.337 99.5874 178.943C99.5874 178.943 96.6837 175.501 100.769 173.78C101.556 173.435 102.442 173.484 103.205 173.853C104.435 174.468 105.912 174.124 106.773 173.066Z" fill="#000091"/>
<path d="M101.433 181.059C100.227 181.059 98.6769 180.542 97.5449 178.403C97.3973 178.132 97.4957 177.813 97.7664 177.665C98.0371 177.518 98.357 177.616 98.5046 177.887C100.129 180.96 102.59 179.805 102.86 179.682C103.131 179.534 103.451 179.657 103.598 179.903C103.746 180.173 103.648 180.493 103.377 180.641C103.352 180.641 102.54 181.059 101.433 181.059Z" fill="#000091"/>
<path d="M78.0833 156.002C83.2166 155.088 86.4029 157.04 88.3469 159.192C89.335 160.286 90.0094 161.444 90.4368 162.333C90.6496 162.775 90.7988 163.146 90.8938 163.403C90.8942 163.404 90.8943 163.406 90.8948 163.407L90.2073 164.667C86.987 164.825 84.8896 167.24 83.4915 170.397C81.9993 173.766 81.1323 178.32 80.4797 182.999C80.1518 185.35 79.8746 187.761 79.6028 190.099C79.3303 192.443 79.0627 194.711 78.7532 196.799C78.4433 198.89 78.095 200.776 77.6643 202.353C77.2293 203.946 76.7314 205.144 76.1653 205.919L76.1643 205.92C69.8661 214.571 60.8115 216.226 53.9749 215.986L53.9729 215.985C51.109 215.89 49.5894 212.521 51.4397 210.267L51.4407 210.266C56.8401 203.684 58.0189 196.782 58.679 189.839C59.3426 182.859 59.4903 175.938 62.6077 168.821V168.82C65.7793 161.559 71.5417 157.17 78.0833 156.002Z" fill="#000091" stroke="#000091" stroke-width="2"/>
<path d="M24.0172 344.115C20.6706 344.115 17.9391 341.385 17.9391 338.041C17.9391 334.697 20.6706 331.967 24.0172 331.967C27.3639 331.967 30.0953 334.697 30.0953 338.041C30.0953 341.385 27.3885 344.115 24.0172 344.115ZM24.0172 333.049C21.2612 333.049 19.0219 335.287 19.0219 338.041C19.0219 340.795 21.2612 343.033 24.0172 343.033C26.7733 343.033 29.0126 340.795 29.0126 338.041C29.0126 335.287 26.7733 333.049 24.0172 333.049Z" fill="#E1000F"/>
<path d="M106.945 37.8936C103.598 37.8936 100.867 35.1641 100.867 31.8199C100.867 28.4756 103.598 25.7461 106.945 25.7461C110.292 25.7461 113.023 28.4756 113.023 31.8199C113.023 35.1641 110.292 37.8936 106.945 37.8936ZM106.945 26.8281C104.189 26.8281 101.95 29.0658 101.95 31.8199C101.95 34.574 104.189 36.8117 106.945 36.8117C109.701 36.8117 111.94 34.574 111.94 31.8199C111.94 29.0658 109.701 26.8281 106.945 26.8281Z" fill="#000091"/>
<path d="M30.6613 355.968C28.3974 355.968 26.5764 354.148 26.5764 351.886C26.5764 349.624 28.3974 347.804 30.6613 347.804C32.9252 347.804 34.7462 349.624 34.7462 351.886C34.7462 354.148 32.9252 355.968 30.6613 355.968ZM30.6613 348.886C29.0126 348.886 27.6592 350.239 27.6592 351.886C27.6592 353.534 29.0126 354.886 30.6613 354.886C32.31 354.886 33.6634 353.534 33.6634 351.886C33.6634 350.239 32.31 348.886 30.6613 348.886Z" fill="#000091"/>
<path d="M433.833 137.434C431.569 137.434 429.748 135.615 429.748 133.352C429.748 131.09 431.594 129.271 433.833 129.271C436.097 129.271 437.918 131.09 437.918 133.352C437.918 135.59 436.097 137.434 433.833 137.434ZM433.833 130.328C432.184 130.328 430.831 131.68 430.831 133.328C430.831 134.975 432.184 136.328 433.833 136.328C435.482 136.328 436.835 134.975 436.835 133.328C436.835 131.68 435.482 130.328 433.833 130.328Z" fill="#000091"/>
<path d="M428.567 124.574C425.836 124.574 423.621 122.361 423.621 119.631C423.621 116.902 425.836 114.688 428.567 114.688C431.299 114.688 433.513 116.902 433.513 119.631C433.538 122.361 431.299 124.574 428.567 124.574ZM428.567 115.77C426.426 115.77 424.704 117.492 424.704 119.631C424.704 121.77 426.426 123.492 428.567 123.492C430.708 123.492 432.431 121.77 432.431 119.631C432.431 117.492 430.708 115.77 428.567 115.77Z" fill="#E1000F"/>
<path d="M14.8878 314.705C14.5925 314.705 14.3464 314.459 14.3464 314.164V309.959C14.3464 309.664 14.5925 309.418 14.8878 309.418C15.1831 309.418 15.4292 309.664 15.4292 309.959V314.164C15.4292 314.459 15.1831 314.705 14.8878 314.705Z" fill="#000091"/>
<path d="M14.8878 324.492C14.5925 324.492 14.3464 324.247 14.3464 323.951V319.747C14.3464 319.451 14.5925 319.206 14.8878 319.206C15.1831 319.206 15.4292 319.451 15.4292 319.747V323.951C15.4292 324.247 15.1831 324.492 14.8878 324.492Z" fill="#000091"/>
<path d="M12.1072 317.484H7.89925C7.60396 317.484 7.35788 317.238 7.35788 316.943C7.35788 316.648 7.60396 316.402 7.89925 316.402H12.1072C12.4025 316.402 12.6485 316.648 12.6485 316.943C12.6485 317.263 12.4025 317.484 12.1072 317.484Z" fill="#000091"/>
<path d="M21.901 317.484H17.6931C17.3978 317.484 17.1517 317.238 17.1517 316.943C17.1517 316.648 17.3978 316.402 17.6931 316.402H21.901C22.1963 316.402 22.4424 316.648 22.4424 316.943C22.4424 317.263 22.1963 317.484 21.901 317.484Z" fill="#000091"/>
<path d="M86.2254 38.2141C85.9301 38.2141 85.684 37.9682 85.684 37.6732V33.4682C85.684 33.1732 85.9301 32.9272 86.2254 32.9272C86.5207 32.9272 86.7668 33.1732 86.7668 33.4682V37.6732C86.7668 37.9682 86.5453 38.2141 86.2254 38.2141Z" fill="#E1000F"/>
<path d="M86.2254 48.0008C85.9301 48.0008 85.684 47.7549 85.684 47.4598V43.2549C85.684 42.9598 85.9301 42.7139 86.2254 42.7139C86.5207 42.7139 86.7668 42.9598 86.7668 43.2549V47.4598C86.7668 47.7794 86.5453 48.0008 86.2254 48.0008Z" fill="#E1000F"/>
<path d="M83.4447 41.0175H79.2368C78.9415 41.0175 78.6955 40.7716 78.6955 40.4765C78.6955 40.1815 78.9415 39.9355 79.2368 39.9355H83.4447C83.74 39.9355 83.9861 40.1815 83.9861 40.4765C83.9861 40.7716 83.74 41.0175 83.4447 41.0175Z" fill="#E1000F"/>
<path d="M93.2386 41.0175H89.0307C88.7354 41.0175 88.4893 40.7716 88.4893 40.4765C88.4893 40.1815 88.7354 39.9355 89.0307 39.9355H93.2386C93.5339 39.9355 93.78 40.1815 93.78 40.4765C93.78 40.7716 93.5339 41.0175 93.2386 41.0175Z" fill="#E1000F"/>
<path d="M28.2005 268.672C27.9791 268.672 27.7576 268.525 27.6838 268.303C11.8611 222.639 13.7066 187.402 18.0622 165.885C22.7869 142.549 31.3749 129.836 31.4734 129.713C31.6456 129.467 31.9901 129.393 32.2362 129.565C32.4823 129.738 32.5561 130.082 32.3839 130.328C32.31 130.451 23.7958 143.041 19.1449 166.18C14.8386 187.549 13.0176 222.541 28.7419 267.959C28.8403 268.23 28.6927 268.549 28.3974 268.648C28.3236 268.672 28.2744 268.672 28.2005 268.672Z" fill="#E1000F"/>
<path d="M12.3532 251.336C12.1071 251.336 11.8857 251.164 11.8365 250.918C0.39389 204.073 5.29082 169.573 11.4181 148.869C18.0622 126.418 27.5854 114.885 27.6592 114.762C27.856 114.541 28.2005 114.491 28.422 114.688C28.6435 114.885 28.6927 115.229 28.4958 115.45C28.3974 115.573 19.0219 126.959 12.427 149.237C6.34894 169.795 1.50124 204.073 12.87 250.647C12.9438 250.942 12.7715 251.237 12.4763 251.311C12.4516 251.336 12.4024 251.336 12.3532 251.336Z" fill="#000091"/>
<path d="M82.4607 137.286C93.1835 137.286 101.876 128.6 101.876 117.885C101.876 107.169 93.1835 98.4829 82.4607 98.4829C71.7378 98.4829 63.0452 107.169 63.0452 117.885C63.0452 128.6 71.7378 137.286 82.4607 137.286Z" fill="white"/>
<path d="M82.4114 137.852C78.991 137.852 75.6197 136.966 72.5684 135.22C67.9421 132.589 64.5955 128.286 63.1929 123.147C61.7902 118.007 62.4546 112.622 65.1123 107.999C67.7453 103.376 72.027 100.032 77.1946 98.6303C82.3376 97.2287 87.7267 97.8926 92.3529 100.548C96.9792 103.179 100.326 107.483 101.728 112.622C103.131 117.761 102.467 123.147 99.8091 127.77C97.176 132.393 92.8943 135.737 87.7267 137.139C85.9796 137.606 84.1832 137.852 82.4114 137.852ZM82.4853 98.9992C80.8119 98.9992 79.114 99.2205 77.4653 99.6877C72.593 101.016 68.5573 104.163 66.0473 108.54C63.562 112.917 62.8976 118.007 64.251 122.876C65.5798 127.745 68.7296 131.778 73.1097 134.286C77.4899 136.77 82.5837 137.434 87.456 136.081C92.3283 134.753 96.364 131.606 98.874 127.229C101.359 122.852 102.024 117.761 100.67 112.893C99.3415 108.024 96.1917 103.991 91.8116 101.483C88.9079 99.8352 85.7089 98.9992 82.4853 98.9992Z" fill="#000091"/>
<path d="M83.3465 126.959C83.1989 126.959 83.0512 126.885 82.9528 126.787L73.6757 116.631C73.4788 116.41 73.4789 116.065 73.7003 115.869C73.9218 115.672 74.2663 115.672 74.4632 115.893L82.7559 124.967C82.6083 117.418 83.5434 111.565 85.5366 107.115C85.6596 106.844 85.9795 106.721 86.2502 106.844C86.5209 106.967 86.6439 107.287 86.5209 107.557C84.4539 112.131 83.5926 118.303 83.8879 126.393C83.8879 126.615 83.7649 126.836 83.5434 126.91C83.4696 126.959 83.4203 126.959 83.3465 126.959Z" fill="#E1000F"/>
</svg>
